<svg width="7" height="5" viewBox="0 0 7 5" fill="none" xmlns="http://www.w3.org/2000/svg">
<path d="M3.0599 4.32988C2.99823 4.33 2.93714 4.31795 2.88013 4.29441C2.82313 4.27086 2.77134 4.2363 2.72773 4.19269L0.734731 2.19922C0.689828 2.15591 0.654 2.10409 0.629337 2.04679C0.604674 1.98949 0.591671 1.92785 0.591085 1.86546C0.590499 1.80308 0.602343 1.74121 0.625926 1.68345C0.649508 1.62569 0.684357 1.57321 0.728438 1.52907C0.77252 1.48493 0.824952 1.45 0.882674 1.42634C0.940397 1.40267 1.00225 1.39074 1.06464 1.39124C1.12702 1.39174 1.18868 1.40465 1.24602 1.42924C1.30335 1.45382 1.35522 1.48957 1.39859 1.53441L3.05943 3.19525L6.04987 0.205747C6.13797 0.117589 6.25747 0.0680372 6.3821 0.0679932C6.50673 0.0679491 6.62628 0.117416 6.71444 0.205512C6.8026 0.293609 6.85215 0.413117 6.85219 0.537748C6.85224 0.662379 6.80277 0.781923 6.71467 0.870081L3.39206 4.19269C3.34846 4.2363 3.29666 4.27086 3.23966 4.29441C3.18266 4.31795 3.12157 4.33 3.0599 4.32988Z" fill="#2FAB73"/>
</svg>
